<?xml version="1.0" encoding="UTF-8"?>
<!DOCTYPE svg PUBLIC "-//W3C//DTD SVG 1.1//EN" "http://www.w3.org/Graphics/SVG/1.1/DTD/svg11.dtd">
<svg xmlns="http://www.w3.org/2000/svg" version="1.1" width="192px" height="192px" style="shape-rendering:geometricPrecision; text-rendering:geometricPrecision; image-rendering:optimizeQuality; fill-rule:evenodd; clip-rule:evenodd" xmlns:xlink="http://www.w3.org/1999/xlink">
<rect x="0" y="0" width="192" height="192" fill="#0d6efd"/>
<g><path fill="#0d6efd" stroke="#0d6efd" stroke-width="0.5" d="M 0,0 C 64,0 128,0 192,0 C 192,64 192,128 192,192 C 128,192 64,192 0,192 C 0,128 0,64 0,0 Z M 48.02,68.99 C 47.38,69.01 46.75,69.01 46.11,69 C 44.91,68.74 43.91,69.05 43.12,69.91 C 41.91,69.69 40.94,70.04 40.22,70.97 C 39.67,70.92 39.13,71 38.61,71.21 C 38.19,71.4 37.98,71.73 37.99,72.18 C 37.28,71.93 36.59,71.98 35.93,72.32 C 35.05,73.16 34.07,73.86 33,74.43 C 32.53,74.71 32.28,75.11 32.23,75.63 C 31.49,75.88 30.98,76.37 30.7,77.1 C 30.84,77.64 30.63,77.84 30.07,77.71 C 29.37,77.9 28.95,78.35 28.81,79.06 C 28.88,79.62 28.64,79.88 28.09,79.84 C 27.4,80.03 26.98,80.49 26.83,81.21 C 25.47,81.63 24.86,82.57 24.98,84 C 24.6,84.07 24.28,84.24 24.01,84.52 C 22.72,86.12 22.05,87.94 22.01,89.97 C 21.59,89.96 21.3,90.15 21.14,90.55 C 20.95,91.42 20.89,92.31 20.94,93.2 C 20.4,93.46 20.1,93.9 20.03,94.51 C 19.92,95.67 19.91,96.83 20.03,97.99 C 19.9,100.31 19.93,102.64 20.1,104.96 C 19.99,105.81 19.95,106.67 19.98,107.53 C 19.98,108.27 20.29,108.8 20.93,109.12 C 20.91,109.38 20.9,109.64 20.89,109.89 C 20.85,110.75 20.97,111.58 21.23,112.39 C 21.41,112.75 21.69,112.94 22.07,112.97 C 22.58,113 22.8,113.26 22.74,113.75 C 21.9,114.4 21.99,114.87 23.03,115.17 C 22.8,116.27 23.12,117.14 23.98,117.78 C 24.15,118.4 24.52,118.87 25.07,119.18 C 25.1,120.5 25.73,121.36 26.95,121.77 C 27.05,122.57 27.49,123.09 28.25,123.34 C 29.23,123.54 30,124.08 30.57,124.95 C 30.77,125.2 30.81,125.46 30.68,125.74 C 30.91,126.59 31.47,127.06 32.35,127.17 C 32.19,127.75 32.39,128.18 32.97,128.45 C 33.67,128.85 34.42,129.12 35.23,129.25 C 35.15,129.56 35.23,129.83 35.47,130.05 C 36.57,130.61 37.65,131.2 38.72,131.82 C 39.43,132.11 40.14,132.15 40.87,131.93 C 40.86,132.42 41.09,132.76 41.56,132.94 C 42.37,133.06 43.18,133.09 44,133.02 C 44,133.45 44.19,133.75 44.6,133.91 C 47.21,134.41 49.85,134.77 52.51,134.99 C 63.84,135 75.18,135 86.51,135.01 C 87.56,135.11 88.41,134.77 89.07,134.01 C 90.54,134.16 92.01,134.14 93.47,133.94 C 93.86,133.8 94.07,133.54 94.09,133.14 C 94.9,133.23 95.69,133.15 96.47,132.89 C 96.92,132.68 97.2,132.34 97.3,131.86 C 97.98,132.06 98.66,132.06 99.34,131.85 C 100.43,131.25 101.51,130.67 102.61,130.09 C 102.83,129.88 102.92,129.62 102.86,129.32 C 103.67,129.22 104.43,128.97 105.15,128.57 C 105.69,128.26 105.86,127.82 105.67,127.25 C 106.45,127.03 106.98,126.55 107.27,125.81 C 107.17,125.49 107.25,125.23 107.51,125.01 C 108.15,124.23 108.9,123.62 109.76,123.2 C 110.49,122.98 110.97,122.51 111.21,121.79 C 111.77,121.85 112.18,121.61 112.42,121.07 C 112.81,120.35 113.05,119.59 113.13,118.78 C 113.49,118.84 113.78,118.72 114.01,118.43 C 114.55,117.41 115.11,116.38 115.68,115.37 C 115.96,114.64 116.02,113.9 115.88,113.14 C 116.29,113.03 116.6,112.78 116.79,112.4 C 117.04,111.61 117.14,110.8 117.11,109.97 C 117.66,109.63 117.95,109.13 117.98,108.47 C 118.12,107.29 118.12,106.11 117.97,104.93 C 118.15,102.63 118.12,100.33 117.89,98.03 C 118.15,96.83 118.19,95.62 117.99,94.4 C 117.92,93.72 117.57,93.25 116.94,93.02 C 117.04,92.19 117.02,91.37 116.88,90.55 C 116.71,90.39 116.55,90.23 116.38,90.07 C 112.74,90.01 109.1,89.97 105.46,89.96 C 104.85,89.9 104.35,90.11 103.95,90.57 C 103.67,91.5 103.68,92.44 104,93.37 C 104.18,93.76 104.48,93.91 104.89,93.82 C 104.81,94.73 104.9,95.63 105.14,96.51 C 105.28,96.88 105.53,97.11 105.91,97.2 C 105.96,97.48 106.02,97.77 106.08,98.05 C 105.87,100.35 105.85,102.65 106.03,104.95 C 106.01,105.21 106,105.48 105.98,105.74 C 105.54,105.78 105.25,106.01 105.11,106.45 C 104.95,107.22 104.98,107.98 105.19,108.74 C 104.16,109.09 103.79,109.8 104.07,110.88 C 103.61,110.89 103.34,111.12 103.25,111.58 C 103.28,112.01 103.5,112.21 103.92,112.18 C 103.83,112.59 103.57,112.8 103.15,112.82 C 102.41,113 101.99,113.47 101.87,114.23 C 101.55,114.21 101.27,114.32 101.03,114.54 C 99.93,115.76 98.76,116.91 97.51,117.98 C 97.28,118.23 97.16,118.51 97.14,118.84 C 96.44,118.91 96.03,119.29 95.92,119.98 C 95.7,119.93 95.48,119.87 95.26,119.82 C 94.71,119.81 94.17,119.9 93.66,120.1 C 93.24,120.3 93.03,120.63 93.05,121.08 C 93,121.63 92.71,121.9 92.17,121.9 C 92.17,121.48 91.96,121.27 91.53,121.25 C 91.09,121.3 90.83,121.53 90.74,121.96 C 90.52,121.98 90.31,122 90.09,122.02 C 76.05,121.99 62.01,121.98 47.97,122 C 47.73,121.98 47.48,121.97 47.23,121.96 C 46.84,121.03 46.35,120.97 45.77,121.78 C 45.25,121.87 45,121.65 45,121.12 C 44.55,120.2 43.78,119.72 42.71,119.71 C 42.52,119.84 42.34,119.97 42.15,120.1 C 42,119.37 41.56,118.9 40.84,118.7 C 40.78,118.2 40.55,117.79 40.16,117.46 C 38.95,116.24 37.67,115.16 36.32,114.21 C 35.99,113.47 35.66,112.73 35.32,111.98 C 34.94,111.44 34.42,111.11 33.77,110.99 C 33.35,110.94 33.22,110.72 33.36,110.33 C 33.9,109.64 33.74,109.12 32.9,108.78 C 33.09,108.03 33.08,107.28 32.88,106.54 C 32.69,106.06 32.35,105.8 31.86,105.75 C 31.9,105.23 31.93,104.71 31.97,104.2 C 32.13,102.11 32.13,100.03 31.97,97.95 C 31.96,97.66 31.95,97.38 31.94,97.09 C 32.38,97.1 32.7,96.89 32.9,96.48 C 33.12,95.68 33.1,94.89 32.84,94.1 C 33.33,94.08 33.67,93.84 33.87,93.38 C 34.06,92.85 34.14,92.3 34.12,91.74 C 34.11,91.55 34.1,91.36 34.09,91.17 C 34.73,90.99 35.17,90.6 35.39,89.97 C 37.03,88.6 38.61,87.15 40.15,85.63 C 40.62,85.21 40.89,84.69 40.94,84.07 C 41.42,84.08 41.88,83.99 42.31,83.78 C 43.23,83.34 44.02,82.78 44.67,82.1 C 45.82,82.23 46.72,81.83 47.36,80.92 C 54.4,80.96 61.46,80.98 68.54,80.97 C 69.33,81.03 69.73,80.69 69.72,79.94 C 71.18,79.51 71.91,78.5 71.9,76.91 C 73.22,76.52 73.93,75.63 74.03,74.24 C 74.68,74.01 75.05,73.56 75.13,72.88 C 75.05,72.37 75.26,72.09 75.77,72.04 C 76.49,71.84 77.01,71.41 77.34,70.74 C 77.41,70.17 77.72,69.74 78.29,69.45 C 78.53,69.25 78.65,69 78.66,68.68 C 78.09,68.08 77.38,67.85 76.52,67.98 C 67.5,67.99 58.47,67.99 49.45,67.96 C 48.62,67.86 48.14,68.2 48.02,68.99 Z M 102.08,69.11 C 101.42,69.05 100.76,69.05 100.1,69.11 C 98.83,68.74 97.81,69.06 97.04,70.07 C 95.45,69.92 93.95,70.26 92.57,71.09 C 92.28,71.29 92.17,71.56 92.24,71.89 C 91.03,71.71 90.27,72.18 89.96,73.32 C 89.82,73.83 89.49,74.06 88.95,74.01 C 88.74,73.31 88.54,73.26 88.35,73.88 C 87.69,73.97 87.27,74.32 87.07,74.94 C 86.37,75.03 85.9,75.4 85.67,76.05 C 85.89,76.65 85.69,76.91 85.05,76.81 C 84.45,76.92 84.03,77.25 83.8,77.8 C 83.25,77.99 82.88,78.36 82.68,78.91 C 82.88,79.52 82.66,79.79 82.04,79.71 C 81.32,79.95 80.88,80.44 80.7,81.18 C 79.57,81.74 78.96,82.67 78.85,83.97 C 78.3,84.23 77.87,84.62 77.58,85.16 C 76.5,86.55 75.99,88.11 76.07,89.84 C 75.67,89.94 75.39,90.17 75.21,90.55 C 74.95,91.36 74.82,92.2 74.82,93.06 C 74.26,93.76 73.97,94.57 73.94,95.5 C 73.76,96.65 73.83,97.78 74.14,98.89 C 73.96,100.56 73.93,102.23 74.03,103.9 C 73.82,105.43 73.86,106.95 74.16,108.46 C 74.33,108.85 74.62,109.03 75.04,109.02 C 74.99,109.3 74.94,109.57 74.9,109.85 C 74.92,110.68 75.03,111.49 75.23,112.28 C 75.53,112.74 75.96,112.97 76.51,112.97 C 80.18,113.03 83.85,113.04 87.51,113 C 88.48,112.95 88.89,112.45 88.75,111.51 C 88.59,111.11 88.3,110.89 87.89,110.86 C 87.94,110.09 87.87,109.34 87.68,108.6 C 87.37,107.26 86.82,106.04 86.05,104.94 C 86.13,102.61 86.09,100.28 85.93,97.95 C 86.6,97.76 86.94,97.3 86.96,96.58 C 87.08,95.8 87.03,95.03 86.8,94.28 C 87.28,94.25 87.61,94.01 87.78,93.56 C 87.8,93.12 87.59,92.88 87.15,92.84 C 87.16,92.46 87.35,92.22 87.71,92.11 C 88.71,91.79 89.25,91.09 89.33,90.02 C 91.05,88.35 92.81,86.7 94.6,85.07 C 94.83,84.78 94.94,84.45 94.94,84.08 C 96.17,83.88 97.31,83.44 98.37,82.76 C 98.61,82.58 98.71,82.34 98.66,82.05 C 99.24,82.08 99.82,82.01 100.38,81.84 C 100.82,81.69 101.09,81.4 101.2,80.96 C 115.7,80.94 130.2,80.96 144.7,81.04 C 144.89,81.44 145.2,81.74 145.61,81.92 C 146.81,82.24 147.93,82.74 148.96,83.43 C 149.6,83.79 150.28,83.92 151,83.83 C 151.03,84.28 151.18,84.67 151.47,85 C 152.92,86.29 154.26,87.67 155.5,89.16 C 155.82,89.61 156.25,89.81 156.78,89.77 C 156.89,90.46 157.26,90.94 157.89,91.2 C 157.91,91.43 157.92,91.65 157.94,91.88 C 157.73,93 158.14,93.7 159.17,93.99 C 158.99,94.82 159,95.65 159.2,96.48 C 159.35,96.89 159.62,97.12 160.03,97.18 C 160.04,97.5 160.04,97.82 160.04,98.14 C 159.89,100.39 159.89,102.65 160.06,104.9 C 160.07,105.18 160.08,105.46 160.09,105.74 C 159.63,105.79 159.31,106.04 159.13,106.47 C 158.92,107.25 158.92,108.02 159.13,108.8 C 158.62,108.86 158.26,109.13 158.05,109.61 C 157.84,110.18 157.74,110.77 157.75,111.38 C 157.9,111.86 157.85,112.32 157.62,112.75 C 157.49,112.72 157.37,112.7 157.24,112.68 C 156.45,112.97 155.99,113.53 155.84,114.37 C 155.55,114.27 155.28,114.33 155.05,114.55 C 153.67,115.88 152.38,117.26 151.16,118.68 C 150.48,118.83 150.03,119.22 149.81,119.87 C 149.62,119.88 149.43,119.88 149.24,119.88 C 148.7,119.85 148.18,119.92 147.67,120.11 C 147.23,120.33 147.04,120.68 147.08,121.15 C 147.01,121.66 146.72,121.85 146.23,121.73 C 146.2,121.61 146.17,121.48 146.14,121.36 C 145.52,121.17 145.06,121.36 144.76,121.93 C 144.54,121.92 144.31,121.91 144.09,121.9 C 137.22,122 130.35,122.03 123.48,121.98 C 122.62,121.98 122.05,122.38 121.76,123.17 C 121.78,123.4 121.81,123.63 121.83,123.87 C 120.4,123.89 119.82,124.62 120.09,126.07 C 118.48,126.89 117.37,128.17 116.76,129.9 C 116.96,130.51 116.76,130.8 116.16,130.78 C 115.42,131.06 114.92,131.58 114.66,132.33 C 114.75,132.86 114.51,133.1 113.95,133.07 C 113.32,133.27 113.09,133.71 113.23,134.38 C 113.55,134.79 113.97,134.99 114.49,134.96 C 122.5,135 130.5,135.01 138.5,135.01 C 141.51,134.92 144.49,134.56 147.43,133.93 C 147.83,133.76 148.03,133.46 148.03,133.04 C 148.85,133.08 149.66,133.03 150.46,132.89 C 150.9,132.75 151.09,132.47 151.05,132.04 C 152.83,131.9 154.5,131.36 156.05,130.41 C 156.58,130.23 156.84,129.86 156.82,129.31 C 157.91,129.25 158.85,128.84 159.62,128.08 C 159.83,127.78 159.83,127.49 159.62,127.2 C 160.44,126.96 161.01,126.45 161.35,125.67 C 161.2,125.39 161.24,125.13 161.47,124.91 C 162.07,124.11 162.81,123.53 163.68,123.17 C 164.51,123.02 165,122.53 165.13,121.7 C 165.7,121.78 166.11,121.55 166.37,121.01 C 166.76,120.49 166.93,119.91 166.89,119.26 C 167.49,118.89 167.91,118.37 168.13,117.7 C 168.82,116.97 169.38,116.13 169.83,115.16 C 170.04,114.48 170.05,113.8 169.84,113.12 C 170.28,113.07 170.6,112.84 170.8,112.43 C 171.04,111.6 171.14,110.75 171.11,109.89 C 171.64,109.6 171.92,109.14 171.93,108.52 C 172.13,107.34 172.11,106.17 171.88,105 C 172.14,102.67 172.16,100.33 171.94,98 C 172.08,96.83 172.09,95.67 171.95,94.5 C 171.89,93.91 171.63,93.41 171.18,93.02 C 171.17,92.18 171.06,91.35 170.85,90.54 C 170.65,90.11 170.32,89.88 169.86,89.85 C 170.04,89.1 170.01,88.35 169.78,87.61 C 169.06,86.6 168.5,85.52 168.09,84.35 C 167.83,84.06 167.52,83.96 167.15,84.04 C 167.23,82.43 166.5,81.39 164.96,80.92 C 164.96,80.49 164.86,80.08 164.65,79.69 C 163.56,78.23 162.3,76.92 160.89,75.77 C 160.42,75.39 159.89,75.21 159.3,75.22 C 158.93,74.59 158.38,74.22 157.66,74.09 C 157.36,73.19 156.7,72.78 155.68,72.86 C 155,73.1 154.5,72.93 154.2,72.35 C 153.77,71.26 152.96,70.81 151.78,71 C 151.74,70.65 151.57,70.37 151.26,70.19 C 150.48,69.95 149.69,69.91 148.88,70.05 C 148.82,69.7 148.63,69.43 148.31,69.25 C 147.51,68.99 146.69,68.92 145.85,69.03 C 145.25,68.99 144.65,68.94 144.06,68.87 C 143.9,68.6 143.66,68.43 143.35,68.35 C 142.07,68.21 140.79,68.09 139.5,67.99 C 128.5,67.99 117.51,67.98 106.51,67.98 C 105.45,67.99 104.4,68.07 103.35,68.2 C 102.75,68.26 102.33,68.56 102.08,69.11 Z"/></g>
<g><path fill="#a0a2a4" d="M 20.03,97.99 C 20.25,98.04 20.48,98.1 20.7,98.15 C 20.98,100.35 20.99,102.55 20.75,104.75 C 20.53,104.82 20.31,104.89 20.1,104.96 C 19.93,102.64 19.9,100.31 20.03,97.99 Z"/></g>
<g><path fill="#b2b4b5" d="M 171.2,98.16 C 171.45,98.11 171.69,98.05 171.94,98 C 172.16,100.33 172.14,102.67 171.88,105 C 171.65,104.94 171.42,104.88 171.19,104.82 C 171.26,102.6 171.26,100.38 171.2,98.16 Z"/></g>
<g><path fill="#b6b8b9" d="M 117.29,98.12 C 117.49,98.09 117.69,98.06 117.89,98.03 C 118.12,100.33 118.15,102.63 117.97,104.93 C 117.72,104.94 117.47,104.95 117.22,104.96 C 117.27,102.68 117.3,100.4 117.29,98.12 Z"/></g>
<g><path fill="#5b5e61" d="M 85.93,97.95 C 86.09,100.28 86.13,102.61 86.05,104.94 C 85.72,104.83 85.47,104.62 85.3,104.31 C 84.91,102.72 84.82,101.11 85.01,99.48 C 85.03,98.78 85.34,98.27 85.93,97.95 Z"/></g>
<g><path fill="#b0b2b3" d="M 74.14,98.89 C 74.31,98.97 74.48,99.05 74.66,99.13 C 75.1,100.7 75.11,102.28 74.69,103.87 C 74.47,103.88 74.25,103.89 74.03,103.9 C 73.93,102.23 73.96,100.56 74.14,98.89 Z"/></g>
<g><path fill="#939597" d="M 46.11,69 C 46.75,69.01 47.38,69.01 48.02,68.99 C 48.34,69.09 48.67,69.19 49,69.29 C 48.13,69.89 47.18,70.08 46.15,69.87 C 46.13,69.58 46.12,69.29 46.11,69 Z"/></g>
<g><path fill="#96989a" d="M 143.03,69.44 C 143.37,69.25 143.72,69.06 144.06,68.87 C 144.65,68.94 145.25,68.99 145.85,69.03 C 145.87,69.29 145.89,69.56 145.92,69.82 C 144.92,69.96 143.96,69.83 143.03,69.44 Z"/></g>
<g><path fill="#a7a9ab" d="M 31.26,104.28 C 31.5,104.25 31.74,104.22 31.97,104.2 C 31.93,104.71 31.9,105.23 31.86,105.75 C 31.18,105.49 30.98,105 31.26,104.28 Z"/></g>
<g><path fill="#898c8e" d="M 156.88,74.1 C 157.14,74.09 157.4,74.09 157.66,74.09 C 157.77,74.44 157.88,74.78 157.99,75.12 C 157.44,74.97 157.07,74.63 156.88,74.1 Z M 157.99,75.12 C 158.43,75.15 158.86,75.19 159.3,75.22 C 159.13,75.42 158.96,75.62 158.79,75.82 C 158.51,75.6 158.24,75.37 157.99,75.12 Z"/></g>
<g><path fill="#888a8c" d="M 88.35,73.88 C 88.55,73.92 88.75,73.97 88.95,74.01 C 88.87,74.53 88.58,74.89 88.08,75.08 C 88.17,74.68 88.26,74.28 88.35,73.88 Z M 87.07,74.94 C 87.41,74.99 87.74,75.03 88.08,75.08 C 87.85,75.39 87.56,75.62 87.21,75.79 C 87.16,75.51 87.12,75.22 87.07,74.94 Z"/></g>
<g><path fill="#848689" d="M 100.1,69.11 C 100.76,69.05 101.42,69.05 102.08,69.11 C 101.56,69.66 100.93,69.94 100.18,69.95 C 100.15,69.67 100.13,69.39 100.1,69.11 Z"/></g>
<g><path fill="#bebfc1" d="M 160.33,96 C 160.77,96.51 160.91,97.09 160.76,97.74 C 160.52,97.87 160.28,98.01 160.04,98.14 C 160.04,97.82 160.04,97.5 160.03,97.18 C 160.13,96.79 160.23,96.39 160.33,96 Z"/></g>
<g><path fill="#686b6e" d="M 167.6,116.79 C 167.78,117.1 167.96,117.4 168.13,117.7 C 167.75,117.8 167.37,117.89 166.98,117.98 C 167.17,117.57 167.37,117.18 167.6,116.79 Z"/></g>
<g><path fill="#ffffff" stroke="#ffffff" stroke-width="0.5" d="M 49,69.29 C 57.49,69.01 65.98,68.9 74.49,68.99 C 75.77,69.01 77.04,69.16 78.29,69.45 C 77.72,69.74 77.41,70.17 77.34,70.74 C 76.66,70.98 76.14,71.42 75.77,72.04 C 75.26,72.09 75.05,72.37 75.13,72.88 C 74.52,73.14 74.16,73.59 74.03,74.24 C 72.63,74.53 71.92,75.42 71.9,76.91 C 71.51,76.92 71.18,77.07 70.91,77.34 C 70.33,78.13 69.93,78.99 69.72,79.94 C 62.94,80 56.17,80.02 49.39,79.99 C 48.59,80.02 47.89,80.27 47.27,80.75 C 47.3,80.81 47.33,80.87 47.36,80.92 C 46.19,80.78 45.3,81.17 44.67,82.1 C 43.7,81.99 42.78,82.17 41.91,82.64 C 41.32,82.94 41,83.42 40.94,84.07 C 39.3,84.31 37.99,85.12 37.02,86.52 C 35.86,87.39 35.32,88.54 35.39,89.97 C 34.56,89.95 34.13,90.35 34.09,91.17 C 34.1,91.36 34.11,91.55 34.12,91.74 C 33.23,92.26 32.8,93.04 32.84,94.1 C 32.54,94.19 32.32,94.38 32.19,94.67 C 31.98,95.47 31.9,96.27 31.94,97.09 C 31.95,97.38 31.96,97.66 31.97,97.95 C 31.41,98.31 31.1,98.83 31.04,99.51 C 30.87,101.11 30.94,102.7 31.26,104.28 C 30.98,105 31.18,105.49 31.86,105.75 C 31.86,106.6 31.99,107.43 32.24,108.25 C 32.38,108.52 32.61,108.7 32.9,108.78 C 33.06,109.3 33.21,109.81 33.36,110.33 C 33.22,110.72 33.35,110.94 33.77,110.99 C 33.9,112.67 34.75,113.74 36.32,114.21 C 36.19,115.34 36.6,116.25 37.57,116.92 C 38.4,118.02 39.49,118.61 40.84,118.7 C 41.07,119.37 41.5,119.83 42.15,120.1 C 42.34,119.97 42.52,119.84 42.71,119.71 C 43.11,120.74 43.87,121.21 45,121.12 C 45,121.65 45.25,121.87 45.77,121.78 C 46.25,121.84 46.74,121.9 47.23,121.96 C 47.48,121.97 47.73,121.98 47.97,122 C 48.34,122.53 48.85,122.83 49.51,122.89 C 62.18,123.02 74.84,123.05 87.51,122.98 C 88.55,123.08 89.41,122.76 90.09,122.02 C 90.31,122 90.52,121.98 90.74,121.96 C 91.22,121.94 91.69,121.92 92.17,121.9 C 92.71,121.9 93,121.63 93.05,121.08 C 94.1,121.2 94.84,120.78 95.26,119.82 C 95.48,119.87 95.7,119.93 95.92,119.98 C 96.52,119.8 96.92,119.42 97.14,118.84 C 98.5,118.69 99.6,118.06 100.44,116.94 C 101.37,116.26 101.84,115.35 101.87,114.23 C 102.49,113.93 102.92,113.46 103.15,112.82 C 103.57,112.8 103.83,112.59 103.92,112.18 C 103.97,111.75 104.02,111.31 104.07,110.88 C 104.48,110.95 104.77,110.78 104.92,110.38 C 105.1,109.85 105.18,109.3 105.19,108.74 C 106.03,107.92 106.3,106.92 105.98,105.74 C 106,105.48 106.01,105.21 106.03,104.95 C 106.81,104.38 107.14,103.57 107.02,102.54 C 107.09,101.23 107.02,99.93 106.81,98.64 C 106.68,98.3 106.43,98.11 106.08,98.05 C 106.02,97.77 105.96,97.48 105.91,97.2 C 106.16,96.32 106.14,95.45 105.84,94.59 C 105.64,94.17 105.32,93.92 104.89,93.82 C 104.9,93.08 104.96,92.35 105.06,91.62 C 105.39,91.11 105.86,90.89 106.47,90.97 C 109.43,90.93 112.39,90.99 115.34,91.15 C 115.8,91.85 116.33,92.48 116.94,93.02 C 116.85,94.73 116.97,96.43 117.29,98.12 C 117.3,100.4 117.27,102.68 117.22,104.96 C 116.88,106.63 116.84,108.3 117.11,109.97 C 116.7,110.01 116.4,110.22 116.2,110.6 C 115.96,111.43 115.85,112.28 115.88,113.14 C 115.55,113.14 115.3,113.29 115.13,113.59 C 114.3,115.28 113.63,117 113.13,118.78 C 111.74,119.29 111.1,120.3 111.21,121.79 C 110.53,122.07 110.05,122.54 109.76,123.2 C 108.9,123.62 108.15,124.23 107.51,125.01 C 107.25,125.23 107.17,125.49 107.27,125.81 C 106.57,126.1 106.04,126.59 105.67,127.25 C 104.23,127.22 103.29,127.91 102.86,129.32 C 102.19,129.14 101.57,129.23 100.98,129.6 C 99.91,130.22 98.8,130.77 97.65,131.23 C 97.39,131.37 97.27,131.58 97.3,131.86 C 96.4,131.86 95.51,131.98 94.64,132.24 C 94.28,132.44 94.09,132.74 94.09,133.14 C 92.89,132.9 91.69,132.88 90.49,133.07 C 89.82,133.11 89.35,133.42 89.07,134.01 C 77.22,133.99 65.36,133.98 53.5,133.99 C 50.34,133.66 47.17,133.34 44,133.02 C 43.2,132.1 42.15,131.73 40.87,131.93 C 40.78,131.63 40.59,131.39 40.32,131.22 C 39.22,130.65 38.12,130.09 37.02,129.53 C 36.46,129.21 35.86,129.11 35.23,129.25 C 34.72,127.9 33.76,127.21 32.35,127.17 C 31.95,126.52 31.39,126.04 30.68,125.74 C 30.81,125.46 30.77,125.2 30.57,124.95 C 30,124.08 29.23,123.54 28.25,123.34 C 28.03,122.63 27.6,122.11 26.95,121.77 C 26.95,121.11 26.79,120.5 26.46,119.93 C 26.18,119.34 25.71,119.09 25.07,119.18 C 25.05,118.77 25.02,118.37 25,117.96 C 24.62,117.17 24.24,116.38 23.83,115.61 C 23.63,115.33 23.37,115.18 23.03,115.17 C 22.94,114.69 22.84,114.22 22.74,113.75 C 22.8,113.26 22.58,113 22.07,112.97 C 22.13,112.16 22.06,111.36 21.84,110.58 C 21.65,110.17 21.33,109.95 20.89,109.89 C 20.9,109.64 20.91,109.38 20.93,109.12 C 21.05,107.66 20.99,106.2 20.75,104.75 C 20.99,102.55 20.98,100.35 20.7,98.15 C 21.1,96.51 21.18,94.86 20.94,93.2 C 21.34,93.07 21.64,92.81 21.82,92.42 C 22.05,91.62 22.11,90.8 22.01,89.97 C 22.38,89.92 22.66,89.74 22.86,89.41 C 23.72,87.66 24.43,85.86 24.98,84 C 26.27,83.52 26.88,82.59 26.83,81.21 C 27.45,80.93 27.87,80.48 28.09,79.84 C 28.64,79.88 28.88,79.62 28.81,79.06 C 29.45,78.82 29.87,78.37 30.07,77.71 C 30.63,77.84 30.84,77.64 30.7,77.1 C 31.42,76.83 31.93,76.34 32.23,75.63 C 32.85,75.66 33.43,75.53 33.98,75.25 C 35.1,74.35 36.3,73.59 37.58,72.97 C 37.84,72.77 37.98,72.51 37.99,72.18 C 39,72.23 39.75,71.83 40.22,70.97 C 40.97,71.14 41.7,71.11 42.42,70.89 C 42.85,70.69 43.08,70.37 43.12,69.91 C 44.13,70.04 45.14,70.02 46.15,69.87 C 47.18,70.08 48.13,69.89 49,69.29 Z M 102.08,69.11 C 114.89,69 127.69,68.97 140.5,69.01 C 141.37,69.03 142.21,69.17 143.03,69.44 C 143.96,69.83 144.92,69.96 145.92,69.82 C 146.9,70 147.88,70.08 148.88,70.05 C 148.97,70.46 149.2,70.74 149.59,70.9 C 150.31,71.1 151.04,71.13 151.78,71 C 152.34,71.84 153.15,72.29 154.2,72.35 C 154.5,72.93 155,73.1 155.68,72.86 C 155.85,73.49 156.25,73.9 156.88,74.1 C 157.07,74.63 157.44,74.97 157.99,75.12 C 158.24,75.37 158.51,75.6 158.79,75.82 C 160.59,77.31 162.28,78.91 163.88,80.62 C 164.21,80.85 164.57,80.95 164.96,80.92 C 165.03,82.44 165.76,83.48 167.15,84.04 C 167.59,85.9 168.25,87.68 169.15,89.4 C 169.3,89.69 169.54,89.84 169.86,89.85 C 169.84,90.74 169.93,91.61 170.13,92.47 C 170.35,92.91 170.7,93.1 171.18,93.02 C 170.86,94.73 170.87,96.44 171.2,98.16 C 171.26,100.38 171.26,102.6 171.19,104.82 C 170.89,106.51 170.87,108.2 171.11,109.89 C 170.69,109.95 170.38,110.18 170.19,110.58 C 169.95,111.41 169.83,112.26 169.84,113.12 C 169.52,113.15 169.28,113.3 169.11,113.59 C 168.73,114.72 168.23,115.78 167.6,116.79 C 167.37,117.18 167.17,117.57 166.98,117.98 C 166.95,118.41 166.92,118.84 166.89,119.26 C 165.65,119.57 165.06,120.38 165.13,121.7 C 164.48,122.03 164,122.52 163.68,123.17 C 162.81,123.53 162.07,124.11 161.47,124.91 C 161.24,125.13 161.2,125.39 161.35,125.67 C 160.63,126.02 160.05,126.53 159.62,127.2 C 158.2,127.23 157.27,127.94 156.82,129.31 C 156.17,129.12 155.56,129.21 154.98,129.58 C 153.93,130.21 152.84,130.75 151.71,131.21 C 151.39,131.41 151.18,131.69 151.05,132.04 C 150.24,131.88 149.44,131.93 148.66,132.21 C 148.31,132.38 148.1,132.66 148.03,133.04 C 144.54,133.49 141.03,133.8 137.5,134 C 130.5,133.99 123.49,133.99 116.49,134 C 115.46,134.1 114.62,133.8 113.95,133.07 C 114.51,133.1 114.75,132.86 114.66,132.33 C 115.36,132.01 115.86,131.49 116.16,130.78 C 116.76,130.8 116.96,130.51 116.76,129.9 C 117.51,129.96 118.1,129.68 118.54,129.05 C 119.37,128.21 119.89,127.22 120.09,126.07 C 121.12,125.72 121.7,124.98 121.83,123.87 C 121.81,123.63 121.78,123.4 121.76,123.17 C 128.67,123.04 135.58,122.95 142.49,122.91 C 143.23,122.89 143.77,122.55 144.09,121.9 C 144.31,121.91 144.54,121.92 144.76,121.93 C 145.25,121.86 145.74,121.8 146.23,121.73 C 146.72,121.85 147.01,121.66 147.08,121.15 C 148.1,121.2 148.82,120.78 149.24,119.88 C 149.43,119.88 149.62,119.88 149.81,119.87 C 150.49,119.74 150.95,119.35 151.16,118.68 C 152.29,118.77 153.21,118.35 153.93,117.43 C 155.04,116.68 155.68,115.66 155.84,114.37 C 156.49,113.96 156.96,113.39 157.24,112.68 C 157.37,112.7 157.49,112.72 157.62,112.75 C 157.85,112.32 157.9,111.86 157.75,111.38 C 158.74,110.82 159.2,109.96 159.13,108.8 C 159.46,108.78 159.69,108.6 159.82,108.28 C 160.03,107.45 160.12,106.6 160.09,105.74 C 160.08,105.46 160.07,105.18 160.06,104.9 C 160.67,104.65 160.96,104.18 160.95,103.5 C 161.1,101.57 161.04,99.65 160.76,97.74 C 160.91,97.09 160.77,96.51 160.33,96 C 160.12,95.22 159.73,94.55 159.17,93.99 C 159.22,92.99 158.81,92.28 157.94,91.88 C 157.92,91.65 157.91,91.43 157.89,91.2 C 157.91,90.43 157.54,89.95 156.78,89.77 C 156.65,88.44 156.06,87.36 155,86.51 C 153.98,85.13 152.65,84.23 151,83.83 C 151.04,83.48 150.92,83.19 150.65,82.96 C 149.51,82.39 148.38,81.8 147.26,81.19 C 146.42,80.97 145.57,80.92 144.7,81.04 C 144.6,80.5 144.24,80.2 143.63,80.14 C 142.93,79.98 142.22,79.91 141.51,79.93 C 129.17,80.01 116.83,80.02 104.5,79.96 C 103.77,79.96 103.04,80.05 102.33,80.22 C 101.81,80.29 101.43,80.53 101.2,80.96 C 100.12,80.82 99.27,81.18 98.66,82.05 C 97.69,81.93 96.78,82.13 95.92,82.64 C 95.33,82.94 95,83.42 94.94,84.08 C 93.29,84.29 91.98,85.11 91.02,86.52 C 89.83,87.4 89.27,88.57 89.33,90.02 C 88.19,90.21 87.65,90.91 87.71,92.11 C 87.35,92.22 87.16,92.46 87.15,92.84 C 87.04,93.32 86.92,93.8 86.8,94.28 C 86.73,94.25 86.65,94.23 86.58,94.21 C 85.95,95.37 85.74,96.62 85.93,97.95 C 85.34,98.27 85.03,98.78 85.01,99.48 C 84.82,101.11 84.91,102.72 85.3,104.31 C 85.47,104.62 85.72,104.83 86.05,104.94 C 85.79,106.88 86.16,108.69 87.17,110.38 C 87.33,110.67 87.57,110.83 87.89,110.86 C 87.87,111.26 87.68,111.56 87.32,111.76 C 83.77,112.04 80.21,112.07 76.64,111.86 C 76.19,111.06 75.61,110.39 74.9,109.85 C 74.94,109.57 74.99,109.3 75.04,109.02 C 75.13,107.29 75.01,105.57 74.69,103.87 C 75.11,102.28 75.1,100.7 74.66,99.13 C 75.08,97.11 75.13,95.08 74.82,93.06 C 75.3,93.07 75.65,92.85 75.87,92.42 C 76.06,91.57 76.12,90.71 76.07,89.84 C 76.67,89.7 77.04,89.32 77.2,88.69 C 78.07,87.21 78.62,85.64 78.85,83.97 C 80.29,83.61 80.9,82.67 80.7,81.18 C 81.39,80.91 81.84,80.43 82.04,79.71 C 82.66,79.79 82.88,79.52 82.68,78.91 C 83.34,78.82 83.71,78.46 83.8,77.8 C 84.43,77.74 84.85,77.41 85.05,76.81 C 85.69,76.91 85.89,76.65 85.67,76.05 C 86.18,75.97 86.7,75.88 87.21,75.79 C 87.56,75.62 87.85,75.39 88.08,75.08 C 88.58,74.89 88.87,74.53 88.95,74.01 C 89.49,74.06 89.82,73.83 89.96,73.32 C 90.99,73.25 91.75,72.77 92.24,71.89 C 93.73,71.99 95.11,71.64 96.38,70.83 C 96.73,70.68 96.95,70.43 97.04,70.07 C 98.09,70.15 99.14,70.1 100.18,69.95 C 100.93,69.94 101.56,69.66 102.08,69.11 Z"/></g>
<g><path fill="#1e4379" d="M 44,133.02 C 47.17,133.34 50.34,133.66 53.5,133.99 C 65.36,133.98 77.22,133.99 89.07,134.01 C 88.41,134.77 87.56,135.11 86.51,135.01 C 75.18,135 63.84,135 52.51,134.99 C 49.85,134.77 47.21,134.41 44.6,133.91 C 44.19,133.75 44,133.45 44,133.02 Z M 113.95,133.07 C 114.62,133.8 115.46,134.1 116.49,134 C 123.49,133.99 130.5,133.99 137.5,134 C 141.03,133.8 144.54,133.49 148.03,133.04 C 148.03,133.46 147.83,133.76 147.43,133.93 C 144.49,134.56 141.51,134.92 138.5,135.01 C 130.5,135.01 122.5,135 114.49,134.96 C 113.97,134.99 113.55,134.79 113.23,134.38 C 113.09,133.71 113.32,133.27 113.95,133.07 Z"/></g>
<g><path fill="#1f2b3b" d="M 78.29,69.45 C 77.04,69.16 75.77,69.01 74.49,68.99 C 65.98,68.9 57.49,69.01 49,69.29 C 48.67,69.19 48.34,69.09 48.02,68.99 C 48.14,68.2 48.62,67.86 49.45,67.96 C 58.47,67.99 67.5,67.99 76.52,67.98 C 77.38,67.85 78.09,68.08 78.66,68.68 C 78.65,69 78.53,69.25 78.29,69.45 Z M 144.06,68.87 C 143.72,69.06 143.37,69.25 143.03,69.44 C 142.21,69.17 141.37,69.03 140.5,69.01 C 127.69,68.97 114.89,69 102.08,69.11 C 102.33,68.56 102.75,68.26 103.35,68.2 C 104.4,68.07 105.45,67.99 106.51,67.98 C 117.51,67.98 128.5,67.99 139.5,67.99 C 140.79,68.09 142.07,68.21 143.35,68.35 C 143.66,68.43 143.9,68.6 144.06,68.87 Z"/></g>
<g><path fill="#1f4274" d="M 69.72,79.94 C 69.73,80.69 69.33,81.03 68.54,80.97 C 61.46,80.98 54.4,80.96 47.36,80.92 C 47.33,80.87 47.3,80.81 47.27,80.75 C 47.89,80.27 48.59,80.02 49.39,79.99 C 56.17,80.02 62.94,80 69.72,79.94 Z M 144.7,81.04 C 130.2,80.96 115.7,80.94 101.2,80.96 C 101.43,80.53 101.81,80.29 102.33,80.22 C 103.04,80.05 103.77,79.96 104.5,79.96 C 116.83,80.02 129.17,80.01 141.51,79.93 C 142.22,79.91 142.93,79.98 143.63,80.14 C 144.24,80.2 144.6,80.5 144.7,81.04 Z"/></g>
<g><path fill="#253449" d="M 47.97,122 C 62.01,121.98 76.05,121.99 90.09,122.02 C 89.41,122.76 88.55,123.08 87.51,122.98 C 74.84,123.05 62.18,123.02 49.51,122.89 C 48.85,122.83 48.34,122.53 47.97,122 Z M 144.09,121.9 C 143.77,122.55 143.23,122.89 142.49,122.91 C 135.58,122.95 128.67,123.04 121.76,123.17 C 122.05,122.38 122.62,121.98 123.48,121.98 C 130.35,122.03 137.22,122 144.09,121.9 Z"/></g>
<g><path fill="#3f4c5e" d="M 40.94,84.07 C 40.89,84.69 40.62,85.21 40.15,85.63 C 38.61,87.15 37.03,88.6 35.39,89.97 C 35.32,88.54 35.86,87.39 37.02,86.52 C 37.99,85.12 39.3,84.31 40.94,84.07 Z M 94.94,84.08 C 94.94,84.45 94.83,84.78 94.6,85.07 C 92.81,86.7 91.05,88.35 89.33,90.02 C 89.27,88.57 89.83,87.4 91.02,86.52 C 91.98,85.11 93.29,84.29 94.94,84.08 Z M 167.15,84.04 C 167.52,83.96 167.83,84.06 168.09,84.35 C 168.5,85.52 169.06,86.6 169.78,87.61 C 170.01,88.35 170.04,89.1 169.86,89.85 C 169.54,89.84 169.3,89.69 169.15,89.4 C 168.25,87.68 167.59,85.9 167.15,84.04 Z"/></g>
<g><path fill="#3b4a5e" d="M 97.04,70.07 C 96.95,70.43 96.73,70.68 96.38,70.83 C 95.11,71.64 93.73,71.99 92.24,71.89 C 92.17,71.56 92.28,71.29 92.57,71.09 C 93.95,70.26 95.45,69.92 97.04,70.07 Z M 78.85,83.97 C 78.62,85.64 78.07,87.21 77.2,88.69 C 77.04,89.32 76.67,89.7 76.07,89.84 C 75.99,88.11 76.5,86.55 77.58,85.16 C 77.87,84.62 78.3,84.23 78.85,83.97 Z M 151,83.83 C 152.65,84.23 153.98,85.13 155,86.51 C 156.06,87.36 156.65,88.44 156.78,89.77 C 156.25,89.81 155.82,89.61 155.5,89.16 C 154.26,87.67 152.92,86.29 151.47,85 C 151.18,84.67 151.03,84.28 151,83.83 Z"/></g>
<g><path fill="#32435b" d="M 20.94,93.2 C 21.18,94.86 21.1,96.51 20.7,98.15 C 20.48,98.1 20.25,98.04 20.03,97.99 C 19.91,96.83 19.92,95.67 20.03,94.51 C 20.1,93.9 20.4,93.46 20.94,93.2 Z M 171.18,93.02 C 171.63,93.41 171.89,93.91 171.95,94.5 C 172.09,95.67 172.08,96.83 171.94,98 C 171.69,98.05 171.45,98.11 171.2,98.16 C 170.87,96.44 170.86,94.73 171.18,93.02 Z M 117.22,104.96 C 117.47,104.95 117.72,104.94 117.97,104.93 C 118.12,106.11 118.12,107.29 117.98,108.47 C 117.95,109.13 117.66,109.63 117.11,109.97 C 116.84,108.3 116.88,106.63 117.22,104.96 Z M 120.09,126.07 C 119.89,127.22 119.37,128.21 118.54,129.05 C 118.1,129.68 117.51,129.96 116.76,129.9 C 117.37,128.17 118.48,126.89 120.09,126.07 Z"/></g>
<g><path fill="#46505e" d="M 101.87,114.23 C 101.84,115.35 101.37,116.26 100.44,116.94 C 99.6,118.06 98.5,118.69 97.14,118.84 C 97.16,118.51 97.28,118.23 97.51,117.98 C 98.76,116.91 99.93,115.76 101.03,114.54 C 101.27,114.32 101.55,114.21 101.87,114.23 Z M 155.84,114.37 C 155.68,115.66 155.04,116.68 153.93,117.43 C 153.21,118.35 152.29,118.77 151.16,118.68 C 152.38,117.26 153.67,115.88 155.05,114.55 C 155.28,114.33 155.55,114.27 155.84,114.37 Z"/></g>
<g><path fill="#4e545b" d="M 116.94,93.02 C 116.33,92.48 115.8,91.85 115.34,91.15 C 112.39,90.99 109.43,90.93 106.47,90.97 C 105.86,90.89 105.39,91.11 105.06,91.62 C 104.96,92.35 104.9,93.08 104.89,93.82 C 104.48,93.91 104.18,93.76 104,93.37 C 103.68,92.44 103.67,91.5 103.95,90.57 C 104.35,90.11 104.85,89.9 105.46,89.96 C 109.1,89.97 112.74,90.01 116.38,90.07 C 116.55,90.23 116.71,90.39 116.88,90.55 C 117.02,91.37 117.04,92.19 116.94,93.02 Z"/></g>
<g><path fill="#272f3a" d="M 74.9,109.85 C 75.61,110.39 76.19,111.06 76.64,111.86 C 80.21,112.07 83.77,112.04 87.32,111.76 C 87.68,111.56 87.87,111.26 87.89,110.86 C 88.3,110.89 88.59,111.11 88.75,111.51 C 88.89,112.45 88.48,112.95 87.51,113 C 83.85,113.04 80.18,113.03 76.51,112.97 C 75.96,112.97 75.53,112.74 75.23,112.28 C 75.03,111.49 74.92,110.68 74.9,109.85 Z"/></g>
<g><path fill="#3f4957" d="M 26.83,81.21 C 26.88,82.59 26.27,83.52 24.98,84 C 24.86,82.57 25.47,81.63 26.83,81.21 Z M 80.7,81.18 C 80.9,82.67 80.29,83.61 78.85,83.97 C 78.96,82.67 79.57,81.74 80.7,81.18 Z M 105.98,105.74 C 106.3,106.92 106.03,107.92 105.19,108.74 C 104.98,107.98 104.95,107.22 105.11,106.45 C 105.25,106.01 105.54,105.78 105.98,105.74 Z M 159.62,127.2 C 159.83,127.49 159.83,127.78 159.62,128.08 C 158.85,128.84 157.91,129.25 156.82,129.31 C 157.27,127.94 158.2,127.23 159.62,127.2 Z"/></g>
<g><path fill="#425164" d="M 74.82,93.06 C 75.13,95.08 75.08,97.11 74.66,99.13 C 74.48,99.05 74.31,98.97 74.14,98.89 C 73.83,97.78 73.76,96.65 73.94,95.5 C 73.97,94.57 74.26,93.76 74.82,93.06 Z M 156.82,129.31 C 156.84,129.86 156.58,130.23 156.05,130.41 C 154.5,131.36 152.83,131.9 151.05,132.04 C 151.18,131.69 151.39,131.41 151.71,131.21 C 152.84,130.75 153.93,130.21 154.98,129.58 C 155.56,129.21 156.17,129.12 156.82,129.31 Z"/></g>
<g><path fill="#364c6c" d="M 86.8,94.28 C 87.03,95.03 87.08,95.8 86.96,96.58 C 86.94,97.3 86.6,97.76 85.93,97.95 C 85.74,96.62 85.95,95.37 86.58,94.21 C 86.65,94.23 86.73,94.25 86.8,94.28 Z M 86.05,104.94 C 86.82,106.04 87.37,107.26 87.68,108.6 C 87.87,109.34 87.94,110.09 87.89,110.86 C 87.57,110.83 87.33,110.67 87.17,110.38 C 86.16,108.69 85.79,106.88 86.05,104.94 Z"/></g>
<g><path fill="#2d405b" d="M 43.12,69.91 C 43.08,70.37 42.85,70.69 42.42,70.89 C 41.7,71.11 40.97,71.14 40.22,70.97 C 40.94,70.04 41.91,69.69 43.12,69.91 Z M 148.88,70.05 C 149.69,69.91 150.48,69.95 151.26,70.19 C 151.57,70.37 151.74,70.65 151.78,71 C 151.04,71.13 150.31,71.1 149.59,70.9 C 149.2,70.74 148.97,70.46 148.88,70.05 Z M 171.19,104.82 C 171.42,104.88 171.65,104.94 171.88,105 C 172.11,106.17 172.13,107.34 171.93,108.52 C 171.92,109.14 171.64,109.6 171.11,109.89 C 170.87,108.2 170.89,106.51 171.19,104.82 Z"/></g>
<g><path fill="#254068" d="M 159.3,75.22 C 159.89,75.21 160.42,75.39 160.89,75.77 C 162.3,76.92 163.56,78.23 164.65,79.69 C 164.86,80.08 164.96,80.49 164.96,80.92 C 164.57,80.95 164.21,80.85 163.88,80.62 C 162.28,78.91 160.59,77.31 158.79,75.82 C 158.96,75.62 159.13,75.42 159.3,75.22 Z"/></g>
<g><path fill="#364963" d="M 44.67,82.1 C 44.02,82.78 43.23,83.34 42.31,83.78 C 41.88,83.99 41.42,84.08 40.94,84.07 C 41,83.42 41.32,82.94 41.91,82.64 C 42.78,82.17 43.7,81.99 44.67,82.1 Z M 98.66,82.05 C 98.71,82.34 98.61,82.58 98.37,82.76 C 97.31,83.44 96.17,83.88 94.94,84.08 C 95,83.42 95.33,82.94 95.92,82.64 C 96.78,82.13 97.69,81.93 98.66,82.05 Z"/></g>
<g><path fill="#25364d" d="M 40.22,70.97 C 39.75,71.83 39,72.23 37.99,72.18 C 37.98,71.73 38.19,71.4 38.61,71.21 C 39.13,71 39.67,70.92 40.22,70.97 Z M 151.78,71 C 152.96,70.81 153.77,71.26 154.2,72.35 C 153.15,72.29 152.34,71.84 151.78,71 Z M 20.89,109.89 C 21.33,109.95 21.65,110.17 21.84,110.58 C 22.06,111.36 22.13,112.16 22.07,112.97 C 21.69,112.94 21.41,112.75 21.23,112.39 C 20.97,111.58 20.85,110.75 20.89,109.89 Z M 42.71,119.71 C 43.78,119.72 44.55,120.2 45,121.12 C 43.87,121.21 43.11,120.74 42.71,119.71 Z"/></g>
<g><path fill="#4c5561" d="M 36.32,114.21 C 37.67,115.16 38.95,116.24 40.16,117.46 C 40.55,117.79 40.78,118.2 40.84,118.7 C 39.49,118.61 38.4,118.02 37.57,116.92 C 36.6,116.25 36.19,115.34 36.32,114.21 Z"/></g>
<g><path fill="#455162" d="M 37.99,72.18 C 37.98,72.51 37.84,72.77 37.58,72.97 C 36.3,73.59 35.1,74.35 33.98,75.25 C 33.43,75.53 32.85,75.66 32.23,75.63 C 32.28,75.11 32.53,74.71 33,74.43 C 34.07,73.86 35.05,73.16 35.93,72.32 C 36.59,71.98 37.28,71.93 37.99,72.18 Z"/></g>
<g><path fill="#455365" d="M 102.86,129.32 C 102.92,129.62 102.83,129.88 102.61,130.09 C 101.51,130.67 100.43,131.25 99.34,131.85 C 98.66,132.06 97.98,132.06 97.3,131.86 C 97.27,131.58 97.39,131.37 97.65,131.23 C 98.8,130.77 99.91,130.22 100.98,129.6 C 101.57,129.23 102.19,129.14 102.86,129.32 Z"/></g>
<g><path fill="#3f4e63" d="M 35.23,129.25 C 35.86,129.11 36.46,129.21 37.02,129.53 C 38.12,130.09 39.22,130.65 40.32,131.22 C 40.59,131.39 40.78,131.63 40.87,131.93 C 40.14,132.15 39.43,132.11 38.72,131.82 C 37.65,131.2 36.57,130.61 35.47,130.05 C 35.23,129.83 35.15,129.56 35.23,129.25 Z"/></g>
<g><path fill="#384960" d="M 115.88,113.14 C 116.02,113.9 115.96,114.64 115.68,115.37 C 115.11,116.38 114.55,117.41 114.01,118.43 C 113.78,118.72 113.49,118.84 113.13,118.78 C 113.63,117 114.3,115.28 115.13,113.59 C 115.3,113.29 115.55,113.14 115.88,113.14 Z"/></g>
<g><path fill="#2f3f56" d="M 74.03,74.24 C 73.93,75.63 73.22,76.52 71.9,76.91 C 71.92,75.42 72.63,74.53 74.03,74.24 Z M 25.07,119.18 C 25.71,119.09 26.18,119.34 26.46,119.93 C 26.79,120.5 26.95,121.11 26.95,121.77 C 25.73,121.36 25.1,120.5 25.07,119.18 Z"/></g>
<g><path fill="#474f5a" d="M 74.03,103.9 C 74.25,103.89 74.47,103.88 74.69,103.87 C 75.01,105.57 75.13,107.29 75.04,109.02 C 74.62,109.03 74.33,108.85 74.16,108.46 C 73.86,106.95 73.82,105.43 74.03,103.9 Z M 40.87,131.93 C 42.15,131.73 43.2,132.1 44,133.02 C 43.18,133.09 42.37,133.06 41.56,132.94 C 41.09,132.76 40.86,132.42 40.87,131.93 Z"/></g>
<g><path fill="#23292e" d="M 87.07,74.94 C 87.12,75.22 87.16,75.51 87.21,75.79 C 86.7,75.88 86.18,75.97 85.67,76.05 C 85.9,75.4 86.37,75.03 87.07,74.94 Z M 103.15,112.82 C 102.92,113.46 102.49,113.93 101.87,114.23 C 101.99,113.47 102.41,113 103.15,112.82 Z M 26.95,121.77 C 27.6,122.11 28.03,122.63 28.25,123.34 C 27.49,123.09 27.05,122.57 26.95,121.77 Z M 111.21,121.79 C 110.97,122.51 110.49,122.98 109.76,123.2 C 110.05,122.54 110.53,122.07 111.21,121.79 Z M 165.13,121.7 C 165,122.53 164.51,123.02 163.68,123.17 C 164,122.52 164.48,122.03 165.13,121.7 Z M 107.27,125.81 C 106.98,126.55 106.45,127.03 105.67,127.25 C 106.04,126.59 106.57,126.1 107.27,125.81 Z M 161.35,125.67 C 161.01,126.45 160.44,126.96 159.62,127.2 C 160.05,126.53 160.63,126.02 161.35,125.67 Z M 116.16,130.78 C 115.86,131.49 115.36,132.01 114.66,132.33 C 114.92,131.58 115.42,131.06 116.16,130.78 Z"/></g>
<g><path fill="#38485d" d="M 24.98,84 C 24.43,85.86 23.72,87.66 22.86,89.41 C 22.66,89.74 22.38,89.92 22.01,89.97 C 22.05,87.94 22.72,86.12 24.01,84.52 C 24.28,84.24 24.6,84.07 24.98,84 Z"/></g>
<g><path fill="#424b57" d="M 164.96,80.92 C 166.5,81.39 167.23,82.43 167.15,84.04 C 165.76,83.48 165.03,82.44 164.96,80.92 Z M 105.67,127.25 C 105.86,127.82 105.69,128.26 105.15,128.57 C 104.43,128.97 103.67,129.22 102.86,129.32 C 103.29,127.91 104.23,127.22 105.67,127.25 Z"/></g>
<g><path fill="#3a4b62" d="M 144.7,81.04 C 145.57,80.92 146.42,80.97 147.26,81.19 C 148.38,81.8 149.51,82.39 150.65,82.96 C 150.92,83.19 151.04,83.48 151,83.83 C 150.28,83.92 149.6,83.79 148.96,83.43 C 147.93,82.74 146.81,82.24 145.61,81.92 C 145.2,81.74 144.89,81.44 144.7,81.04 Z"/></g>
<g><path fill="#303b4a" d="M 169.86,89.85 C 170.32,89.88 170.65,90.11 170.85,90.54 C 171.06,91.35 171.17,92.18 171.18,93.02 C 170.7,93.1 170.35,92.91 170.13,92.47 C 169.93,91.61 169.84,90.74 169.86,89.85 Z M 20.1,104.96 C 20.31,104.89 20.53,104.82 20.75,104.75 C 20.99,106.2 21.05,107.66 20.93,109.12 C 20.29,108.8 19.98,108.27 19.98,107.53 C 19.95,106.67 19.99,105.81 20.1,104.96 Z"/></g>
<g><path fill="#1f2d40" d="M 88.35,73.88 C 88.26,74.28 88.17,74.68 88.08,75.08 C 87.74,75.03 87.41,74.99 87.07,74.94 C 87.27,74.32 87.69,73.97 88.35,73.88 Z M 47.36,80.92 C 46.72,81.83 45.82,82.23 44.67,82.1 C 45.3,81.17 46.19,80.78 47.36,80.92 Z M 101.2,80.96 C 101.09,81.4 100.82,81.69 100.38,81.84 C 99.82,82.01 99.24,82.08 98.66,82.05 C 99.27,81.18 100.12,80.82 101.2,80.96 Z M 87.15,92.84 C 87.59,92.88 87.8,93.12 87.78,93.56 C 87.61,94.01 87.28,94.25 86.8,94.28 C 86.92,93.8 87.04,93.32 87.15,92.84 Z M 146.23,121.73 C 145.74,121.8 145.25,121.86 144.76,121.93 C 145.06,121.36 145.52,121.17 146.14,121.36 C 146.17,121.48 146.2,121.61 146.23,121.73 Z"/></g>
<g><path fill="#4a4d51" d="M 160.04,98.14 C 160.28,98.01 160.52,97.87 160.76,97.74 C 161.04,99.65 161.1,101.57 160.95,103.5 C 160.96,104.18 160.67,104.65 160.06,104.9 C 159.89,102.65 159.89,100.39 160.04,98.14 Z"/></g>
<g><path fill="#505356" d="M 106.08,98.05 C 106.43,98.11 106.68,98.3 106.81,98.64 C 107.02,99.93 107.09,101.23 107.02,102.54 C 107.14,103.57 106.81,104.38 106.03,104.95 C 105.85,102.65 105.87,100.35 106.08,98.05 Z"/></g>
<g><path fill="#344253" d="M 159.17,93.99 C 159.73,94.55 160.12,95.22 160.33,96 C 160.23,96.39 160.13,96.79 160.03,97.18 C 159.62,97.12 159.35,96.89 159.2,96.48 C 159,95.65 158.99,94.82 159.17,93.99 Z M 166.89,119.26 C 166.93,119.91 166.76,120.49 166.37,121.01 C 166.11,121.55 165.7,121.78 165.13,121.7 C 165.06,120.38 165.65,119.57 166.89,119.26 Z"/></g>
<g><path fill="#314765" d="M 169.84,113.12 C 170.05,113.8 170.04,114.48 169.83,115.16 C 169.38,116.13 168.82,116.97 168.13,117.7 C 167.96,117.4 167.78,117.1 167.6,116.79 C 168.23,115.78 168.73,114.72 169.11,113.59 C 169.28,113.3 169.52,113.15 169.84,113.12 Z"/></g>
<g><path fill="#313f52" d="M 76.07,89.84 C 76.12,90.71 76.06,91.57 75.87,92.42 C 75.65,92.85 75.3,93.07 74.82,93.06 C 74.82,92.2 74.95,91.36 75.21,90.55 C 75.39,90.17 75.67,89.94 76.07,89.84 Z M 117.11,109.97 C 117.14,110.8 117.04,111.61 116.79,112.4 C 116.6,112.78 116.29,113.03 115.88,113.14 C 115.85,112.28 115.96,111.43 116.2,110.6 C 116.4,110.22 116.7,110.01 117.11,109.97 Z"/></g>
<g><path fill="#46494d" d="M 31.97,97.95 C 32.13,100.03 32.13,102.11 31.97,104.2 C 31.74,104.22 31.5,104.25 31.26,104.28 C 30.94,102.7 30.87,101.11 31.04,99.51 C 31.1,98.83 31.41,98.31 31.97,97.95 Z"/></g>
<g><path fill="#3a4555" d="M 32.84,94.1 C 33.1,94.89 33.12,95.68 32.9,96.48 C 32.7,96.89 32.38,97.1 31.94,97.09 C 31.9,96.27 31.98,95.47 32.19,94.67 C 32.32,94.38 32.54,94.19 32.84,94.1 Z M 104.89,93.82 C 105.32,93.92 105.64,94.17 105.84,94.59 C 106.14,95.45 106.16,96.32 105.91,97.2 C 105.53,97.11 105.28,96.88 105.14,96.51 C 104.9,95.63 104.81,94.73 104.89,93.82 Z"/></g>
<g><path fill="#48515c" d="M 94.09,133.14 C 94.07,133.54 93.86,133.8 93.47,133.94 C 92.01,134.14 90.54,134.16 89.07,134.01 C 89.35,133.42 89.82,133.11 90.49,133.07 C 91.69,132.88 92.89,132.9 94.09,133.14 Z"/></g>
<g><path fill="#36465c" d="M 116.94,93.02 C 117.57,93.25 117.92,93.72 117.99,94.4 C 118.19,95.62 118.15,96.83 117.89,98.03 C 117.69,98.06 117.49,98.09 117.29,98.12 C 116.97,96.43 116.85,94.73 116.94,93.02 Z"/></g>
<g><path fill="#223651" d="M 100.1,69.11 C 100.13,69.39 100.15,69.67 100.18,69.95 C 99.14,70.1 98.09,70.15 97.04,70.07 C 97.81,69.06 98.83,68.74 100.1,69.11 Z M 149.24,119.88 C 148.82,120.78 148.1,121.2 147.08,121.15 C 147.04,120.68 147.23,120.33 147.67,120.11 C 148.18,119.92 148.7,119.85 149.24,119.88 Z"/></g>
<g><path fill="#283d5b" d="M 71.9,76.91 C 71.91,78.5 71.18,79.51 69.72,79.94 C 69.93,78.99 70.33,78.13 70.91,77.34 C 71.18,77.07 71.51,76.92 71.9,76.91 Z"/></g>
<g><path fill="#3c4756" d="M 32.35,127.17 C 33.76,127.21 34.72,127.9 35.23,129.25 C 34.42,129.12 33.67,128.85 32.97,128.45 C 32.39,128.18 32.19,127.75 32.35,127.17 Z"/></g>
<g><path fill="#364457" d="M 113.13,118.78 C 113.05,119.59 112.81,120.35 112.42,121.07 C 112.18,121.61 111.77,121.85 111.21,121.79 C 111.1,120.3 111.74,119.29 113.13,118.78 Z"/></g>
<g><path fill="#3c4e65" d="M 23.03,115.17 C 23.37,115.18 23.63,115.33 23.83,115.61 C 24.24,116.38 24.62,117.17 25,117.96 C 24.66,117.9 24.32,117.84 23.98,117.78 C 23.12,117.14 22.8,116.27 23.03,115.17 Z"/></g>
<g><path fill="#283b56" d="M 33.77,110.99 C 34.42,111.11 34.94,111.44 35.32,111.98 C 35.66,112.73 35.99,113.47 36.32,114.21 C 34.75,113.74 33.9,112.67 33.77,110.99 Z"/></g>
<g><path fill="#212831" d="M 77.34,70.74 C 77.01,71.41 76.49,71.84 75.77,72.04 C 76.14,71.42 76.66,70.98 77.34,70.74 Z M 32.9,108.78 C 33.74,109.12 33.9,109.64 33.36,110.33 C 33.21,109.81 33.06,109.3 32.9,108.78 Z M 166.98,117.98 C 167.37,117.89 167.75,117.8 168.13,117.7 C 167.91,118.37 167.49,118.89 166.89,119.26 C 166.92,118.84 166.95,118.41 166.98,117.98 Z M 30.68,125.74 C 31.39,126.04 31.95,126.52 32.35,127.17 C 31.47,127.06 30.91,126.59 30.68,125.74 Z"/></g>
<g><path fill="#283649" d="M 171.11,109.89 C 171.14,110.75 171.04,111.6 170.8,112.43 C 170.6,112.84 170.28,113.07 169.84,113.12 C 169.83,112.26 169.95,111.41 170.19,110.58 C 170.38,110.18 170.69,109.95 171.11,109.89 Z"/></g>
<g><path fill="#213755" d="M 145.85,69.03 C 146.69,68.92 147.51,68.99 148.31,69.25 C 148.63,69.43 148.82,69.7 148.88,70.05 C 147.88,70.08 146.9,70 145.92,69.82 C 145.89,69.56 145.87,69.29 145.85,69.03 Z"/></g>
<g><path fill="#223958" d="M 46.11,69 C 46.12,69.29 46.13,69.58 46.15,69.87 C 45.14,70.02 44.13,70.04 43.12,69.91 C 43.91,69.05 44.91,68.74 46.11,69 Z"/></g>
<g><path fill="#2c3a4d" d="M 22.01,89.97 C 22.11,90.8 22.05,91.62 21.82,92.42 C 21.64,92.81 21.34,93.07 20.94,93.2 C 20.89,92.31 20.95,91.42 21.14,90.55 C 21.3,90.15 21.59,89.96 22.01,89.97 Z"/></g>
<g><path fill="#1f2e43" d="M 157.66,74.09 C 158.38,74.22 158.93,74.59 159.3,75.22 C 158.86,75.19 158.43,75.15 157.99,75.12 C 157.88,74.78 157.77,74.44 157.66,74.09 Z M 104.07,110.88 C 104.02,111.31 103.97,111.75 103.92,112.18 C 103.5,112.21 103.28,112.01 103.25,111.58 C 103.34,111.12 103.61,110.89 104.07,110.88 Z M 22.74,113.75 C 22.84,114.22 22.94,114.69 23.03,115.17 C 21.99,114.87 21.9,114.4 22.74,113.75 Z"/></g>
<g><path fill="#4a5059" d="M 151.05,132.04 C 151.09,132.47 150.9,132.75 150.46,132.89 C 149.66,133.03 148.85,133.08 148.03,133.04 C 148.1,132.66 148.31,132.38 148.66,132.21 C 149.44,131.93 150.24,131.88 151.05,132.04 Z"/></g>
<g><path fill="#494f56" d="M 97.3,131.86 C 97.2,132.34 96.92,132.68 96.47,132.89 C 95.69,133.15 94.9,133.23 94.09,133.14 C 94.09,132.74 94.28,132.44 94.64,132.24 C 95.51,131.98 96.4,131.86 97.3,131.86 Z"/></g>
<g><path fill="#2b405d" d="M 121.83,123.87 C 121.7,124.98 121.12,125.72 120.09,126.07 C 119.82,124.62 120.4,123.89 121.83,123.87 Z"/></g>
<g><path fill="#404a55" d="M 31.86,105.75 C 32.35,105.8 32.69,106.06 32.88,106.54 C 33.08,107.28 33.09,108.03 32.9,108.78 C 32.61,108.7 32.38,108.52 32.24,108.25 C 31.99,107.43 31.86,106.6 31.86,105.75 Z"/></g>
<g><path fill="#3a4551" d="M 160.09,105.74 C 160.12,106.6 160.03,107.45 159.82,108.28 C 159.69,108.6 159.46,108.78 159.13,108.8 C 158.92,108.02 158.92,107.25 159.13,106.47 C 159.31,106.04 159.63,105.79 160.09,105.74 Z"/></g>
<g><path fill="#2d3542" d="M 34.12,91.74 C 34.14,92.3 34.06,92.85 33.87,93.38 C 33.67,93.84 33.33,94.08 32.84,94.1 C 32.8,93.04 33.23,92.26 34.12,91.74 Z"/></g>
<g><path fill="#353e49" d="M 105.19,108.74 C 105.18,109.3 105.1,109.85 104.92,110.38 C 104.77,110.78 104.48,110.95 104.07,110.88 C 103.79,109.8 104.16,109.09 105.19,108.74 Z"/></g>
<g><path fill="#3e4145" d="M 35.39,89.97 C 35.17,90.6 34.73,90.99 34.09,91.17 C 34.13,90.35 34.56,89.95 35.39,89.97 Z M 151.16,118.68 C 150.95,119.35 150.49,119.74 149.81,119.87 C 150.03,119.22 150.48,118.83 151.16,118.68 Z"/></g>
<g><path fill="#1e395f" d="M 155.68,72.86 C 156.7,72.78 157.36,73.19 157.66,74.09 C 157.4,74.09 157.14,74.09 156.88,74.1 C 156.25,73.9 155.85,73.49 155.68,72.86 Z"/></g>
<g><path fill="#252a30" d="M 28.09,79.84 C 27.87,80.48 27.45,80.93 26.83,81.21 C 26.98,80.49 27.4,80.03 28.09,79.84 Z M 82.04,79.71 C 81.84,80.43 81.39,80.91 80.7,81.18 C 80.88,80.44 81.32,79.95 82.04,79.71 Z"/></g>
<g><path fill="#303946" d="M 89.33,90.02 C 89.25,91.09 88.71,91.79 87.71,92.11 C 87.65,90.91 88.19,90.21 89.33,90.02 Z"/></g>
<g><path fill="#2b3748" d="M 92.24,71.89 C 91.75,72.77 90.99,73.25 89.96,73.32 C 90.27,72.18 91.03,71.71 92.24,71.89 Z"/></g>
<g><path fill="#272c31" d="M 75.13,72.88 C 75.05,73.56 74.68,74.01 74.03,74.24 C 74.16,73.59 74.52,73.14 75.13,72.88 Z M 32.23,75.63 C 31.93,76.34 31.42,76.83 30.7,77.1 C 30.98,76.37 31.49,75.88 32.23,75.63 Z"/></g>
<g><path fill="#293443" d="M 157.94,91.88 C 158.81,92.28 159.22,92.99 159.17,93.99 C 158.14,93.7 157.73,93 157.94,91.88 Z"/></g>
<g><path fill="#303740" d="M 159.13,108.8 C 159.2,109.96 158.74,110.82 157.75,111.38 C 157.74,110.77 157.84,110.18 158.05,109.61 C 158.26,109.13 158.62,108.86 159.13,108.8 Z"/></g>
<g><path fill="#424548" d="M 30.07,77.71 C 29.87,78.37 29.45,78.82 28.81,79.06 C 28.95,78.35 29.37,77.9 30.07,77.71 Z M 83.8,77.8 C 83.71,78.46 83.34,78.82 82.68,78.91 C 82.88,78.36 83.25,77.99 83.8,77.8 Z"/></g>
<g><path fill="#22354e" d="M 95.26,119.82 C 94.84,120.78 94.1,121.2 93.05,121.08 C 93.03,120.63 93.24,120.3 93.66,120.1 C 94.17,119.9 94.71,119.81 95.26,119.82 Z"/></g>
<g><path fill="#3f4246" d="M 97.14,118.84 C 96.92,119.42 96.52,119.8 95.92,119.98 C 96.03,119.29 96.44,118.91 97.14,118.84 Z"/></g>
<g><path fill="#223043" d="M 92.17,121.9 C 91.69,121.92 91.22,121.94 90.74,121.96 C 90.83,121.53 91.09,121.3 91.53,121.25 C 91.96,121.27 92.17,121.48 92.17,121.9 Z"/></g>
<g><path fill="#222e3f" d="M 47.23,121.96 C 46.74,121.9 46.25,121.84 45.77,121.78 C 46.35,120.97 46.84,121.03 47.23,121.96 Z"/></g>
<g><path fill="#43474a" d="M 40.84,118.7 C 41.56,118.9 42,119.37 42.15,120.1 C 41.5,119.83 41.07,119.37 40.84,118.7 Z"/></g>
<g><path fill="#202934" d="M 23.98,117.78 C 24.32,117.84 24.66,117.9 25,117.96 C 25.02,118.37 25.05,118.77 25.07,119.18 C 24.52,118.87 24.15,118.4 23.98,117.78 Z"/></g>
<g><path fill="#3b3f43" d="M 85.05,76.81 C 84.85,77.41 84.43,77.74 83.8,77.8 C 84.03,77.25 84.45,76.92 85.05,76.81 Z"/></g>
<g><path fill="#20252b" d="M 157.24,112.68 C 156.96,113.39 156.49,113.96 155.84,114.37 C 155.99,113.53 156.45,112.97 157.24,112.68 Z"/></g>
<g><path fill="#32363a" d="M 156.78,89.77 C 157.54,89.95 157.91,90.43 157.89,91.2 C 157.26,90.94 156.89,90.46 156.78,89.77 Z"/></g>
<g><path fill="#164b96" d="M 88.95,74.01 C 88.75,73.97 88.55,73.92 88.35,73.88 C 88.54,73.26 88.74,73.31 88.95,74.01 Z"/></g>
</svg>
